# xmcd CD database file
#
# Track frame offsets:
#	150
#	16508
#	31228
#	49926
#	68989
#	89478
#	105945
#	120545
#	136769
#	153048
#	168833
#
# Disc length: 2480 seconds
#
# Revision: 0
# Processed by: cddbd v1.5.2PL0 Copyright (c) Steve Scherf et al.
# Submitted via: CDex 1.51
#
DISCID=7709ae0b
DTITLE=Irene Fornaciari - Vertigini In Fiore
DYEAR=2007
DGENRE=Blues
TTITLE0=It's A Wonderful Life
TTITLE1=Aspetta E Spera
TTITLE2=Io Non Abito Più Quà
TTITLE3=Una Carezza
TTITLE4=Mastichi Aria
TTITLE5=Un Giro In Giro
TTITLE6=Don Vorri
TTITLE7=Un Sole Dentro
TTITLE8=6 Fantastika
TTITLE9=Tirami Sù
TTITLE10=Voli
EXTD=YEAR: 2007
EXTT0=
EXTT1=
EXTT2=
EXTT3=
EXTT4=
EXTT5=
EXTT6=
EXTT7=
EXTT8=
EXTT9=
EXTT10=
PLAYORDER=
